<?xml version="1.0" encoding="UTF-8" standalone="no"?>
<svg
   xmlns:dc="http://purl.org/dc/elements/1.1/"
   xmlns:cc="http://creativecommons.org/ns#"
   xmlns:rdf="http://www.w3.org/1999/02/22-rdf-syntax-ns#"
   xmlns:svg="http://www.w3.org/2000/svg"
   xmlns="http://www.w3.org/2000/svg"
   xmlns:xlink="http://www.w3.org/1999/xlink"
   xmlns:sodipodi="http://sodipodi.sourceforge.net/DTD/sodipodi-0.dtd"
   xmlns:inkscape="http://www.inkscape.org/namespaces/inkscape"
   version="1.1"
   viewBox="0.0 0.0 226.77165354330708 113.38582677165354"
   fill="none"
   stroke="none"
   stroke-linecap="square"
   stroke-miterlimit="10"
   id="svg45"
   sodipodi:docname="logo.svg"
   inkscape:version="1.0.1 (3bc2e813f5, 2020-09-07, custom)">
  <metadata
     id="metadata51">
    <rdf:RDF>
      <cc:Work
         rdf:about="">
        <dc:format>image/svg+xml</dc:format>
        <dc:type
           rdf:resource="http://purl.org/dc/dcmitype/StillImage" />
        <dc:title></dc:title>
      </cc:Work>
    </rdf:RDF>
  </metadata>
  <defs
     id="defs49">
    <defs
       id="defs34">
      <filter
         id="shadowFilter-p.1"
         filterUnits="userSpaceOnUse">
        <feGaussianBlur
           in="SourceAlpha"
           stdDeviation="1.5"
           result="blur"
           id="feGaussianBlur21" />
        <feComponentTransfer
           in="blur"
           color-interpolation-filters="sRGB"
           id="feComponentTransfer31">
          <feFuncR
             type="linear"
             slope="0"
             intercept="0.24313726"
             id="feFuncR23" />
          <feFuncG
             type="linear"
             slope="0"
             intercept="0.70980394"
             id="feFuncG25" />
          <feFuncB
             type="linear"
             slope="0"
             intercept="0.9607843"
             id="feFuncB27" />
          <feFuncA
             type="linear"
             slope="0.77"
             intercept="0"
             id="feFuncA29" />
        </feComponentTransfer>
      </filter>
    </defs>
  </defs>
  <sodipodi:namedview
     pagecolor="#ffffff"
     bordercolor="#666666"
     borderopacity="1"
     objecttolerance="10"
     gridtolerance="10"
     guidetolerance="10"
     inkscape:pageopacity="0"
     inkscape:pageshadow="2"
     inkscape:window-width="1920"
     inkscape:window-height="986"
     id="namedview47"
     showgrid="false"
     inkscape:zoom="4.3311027"
     inkscape:cx="105.79559"
     inkscape:cy="70.370038"
     inkscape:window-x="0"
     inkscape:window-y="0"
     inkscape:window-maximized="1"
     inkscape:current-layer="svg45"
     inkscape:document-rotation="0" />
  <clipPath
     id="p.0">
    <path
       d="m0 0l226.77165 0l0 113.385826l-226.77165 0l0 -113.385826z"
       clip-rule="nonzero"
       id="path2" />
  </clipPath>
  <path
     fill="#000000"
     fill-opacity="0"
     d="M 28.616798,21.606298 H 181.53019 v 77.5748 H 28.616798 Z"
     fill-rule="evenodd"
     id="path7" />
  <path
     fill="#000000"
     d="M 40.538673,76.686295 V 37.811299 h 7.921875 v 33.499996 h 9.125 v 5.375 z m 20.167923,0 V 48.936299 h 7.25 v 27.749996 z m -0.04687,-32.29687 v -5.4375 h 7.296875 v 5.4375 z m 15.882904,32.29687 -5.5625,-27.749996 h 7 L 80.527,67.60817 82.93325,48.936299 h 6.953125 L 84.277,76.686295 Z m 24.96465,0.484375 q -3.078115,0 -5.140615,-1.125 -2.0625,-1.140625 -3.125,-3.3125 -1.046875,-2.1875 -1.046875,-5.265625 v -9.312496 q 0,-3.171875 1.046875,-5.296875 1.0625,-2.140625 3.171875,-3.265625 2.109375,-1.125 5.09374,-1.125 3.17188,0 5.14063,1.15625 1.96875,1.140625 2.89062,3.359375 0.9375,2.203125 0.9375,5.359375 v 4.859375 H 99.351035 v 5.374996 q 0,1.203125 0.25,1.96875 0.265625,0.765625 0.749995,1.078125 0.48438,0.3125 1.20313,0.3125 0.67187,0 1.17187,-0.3125 0.5,-0.3125 0.73438,-0.984375 0.25,-0.671875 0.25,-1.78125 v -2.640625 h 6.71875 v 2.3125 q 0,4.21875 -2.3125,6.4375 -2.29688,2.203125 -6.60938,2.203125 z M 99.351035,59.748799 h 4.359375 v -2.75 q 0,-1.1875 -0.25,-1.9375 -0.23438,-0.75 -0.73438,-1.046875 -0.5,-0.3125 -1.26562,-0.3125 -0.71875,0 -1.1875,0.34375 -0.453125,0.328125 -0.6875,1.171875 -0.234375,0.828125 -0.234375,2.359375 z"
     fill-rule="nonzero"
     id="path9" />
  <path
     fill="#000000"
     fill-opacity="0"
     d="m 108.05795,20 h 322.92914 v 80.7874 H 108.05795 Z"
     fill-rule="evenodd"
     id="path11" />
  <path
     fill="#000000"
     d="m 122.9017,77.936874 q -1.0625,0 -1.0625,-1.109375 V 43.905624 h -12.8125 q -1.125,0 -1.125,-1.015625 0,-0.96875 1.125,-0.96875 h 27.74999 q 1.125,0 1.125,0.96875 0,1.015625 -1.125,1.015625 H 123.9642 v 32.921875 q 0,1.109375 -1.0625,1.109375 z m 20.21584,-31.5 q -1.78125,0 -1.78125,-1.78125 0,-1.71875 1.78125,-1.71875 1.76562,0 1.76562,1.71875 0,1.78125 -1.76562,1.78125 z m 0,31.359375 q -1.0625,0 -1.0625,-1.125 v -22.59375 q 0,-1.109375 1.0625,-1.109375 1.0625,0 1.0625,1.109375 v 22.59375 q 0,1.125 -1.0625,1.125 z m 10.83288,0.140625 q -1.0625,0 -1.0625,-1.109375 V 53.936874 q 0,-1.125 1.0625,-1.125 1.01563,0 1.01563,1.125 v 3.640625 q 1.10937,-2.375 3.10937,-3.609375 2,-1.25 4.6875,-1.25 5.9375,0 7.45313,5.171875 1.0625,-2.390625 3.23437,-3.78125 2.1875,-1.390625 5.125,-1.390625 8.04688,0 8.04688,9.3125 v 14.796875 q 0,1.109375 -1.0625,1.109375 -1.0625,0 -1.0625,-1.109375 v -14.59375 q 0,-3.890625 -1.39063,-5.71875 -1.39062,-1.828125 -4.64062,-1.828125 -3.48438,0 -5.5625,2.40625 -2.07813,2.40625 -2.07813,6.46875 v 13.265625 q 0,1.109375 -1.0625,1.109375 -1.0625,0 -1.0625,-1.109375 v -14.59375 q 0,-3.890625 -1.40625,-5.71875 -1.39062,-1.828125 -4.625,-1.828125 -3.5,0 -5.57812,2.40625 -2.07813,2.40625 -2.07813,6.46875 v 13.265625 q 0,1.109375 -1.0625,1.109375 z m 51.46563,0.109375 q -5.46875,0 -8.64063,-3.359375 -3.15625,-3.375 -3.15625,-9.203125 0,-3.84375 1.4375,-6.703125 1.45313,-2.875 4,-4.46875 2.5625,-1.59375 5.90625,-1.59375 4.76563,0 7.39063,3.125 2.64062,3.109375 2.64062,8.625 0,1.3125 -1.10937,1.3125 h -18.09375 q 0.10937,4.921875 2.57812,7.609375 2.48438,2.671875 6.95313,2.671875 2.01562,0 3.78125,-0.53125 1.78125,-0.53125 3.51562,-1.890625 0.65625,-0.515625 1.1875,-0.3125 0.53125,0.203125 0.65625,0.765625 0.125,0.5625 -0.53125,1.109375 -1.57812,1.328125 -3.85937,2.09375 -2.26563,0.75 -4.65625,0.75 z m -0.5,-23.40625 q -4.10938,0 -6.42188,2.640625 -2.29687,2.625 -2.65625,6.625 h 17.1875 q -0.15625,-4.296875 -2.1875,-6.78125 -2.03125,-2.484375 -5.92187,-2.484375 z"
     fill-rule="nonzero"
     id="path13" />
  <path
     fill="#3ac0ed"
     d="m 10.265092,60.3937 v 0 c 0,-3.678997 2.982418,-6.661415 6.661418,-6.661415 v 0 c 1.766718,0 3.461075,0.701824 4.710333,1.951084 1.249258,1.249256 1.951084,2.943615 1.951084,4.710331 v 0 c 0,3.679001 -2.982418,6.661415 -6.661417,6.661415 v 0 c -3.679,0 -6.661418,-2.982414 -6.661418,-6.661415 z"
     fill-rule="evenodd"
     id="path15" />
  <g
     filter="url(#shadowFilter-p.1)"
     id="g19">
    <use
       xlink:href="#p.1"
       id="use17"
       x="0"
       y="0"
       width="100%"
       height="100%" />
  </g>
  <g
     id="p.1">
    <path
       fill="#000000"
       fill-opacity="0"
       d="m 5.351706,60.3937 v 0 c 0,-6.392586 5.182216,-11.574802 11.574804,-11.574802 v 0 c 3.069828,0 6.013924,1.219486 8.184622,3.390183 2.170696,2.170696 3.390181,5.114792 3.390181,8.18462 v 0 c 0,6.392585 -5.182217,11.574806 -11.574802,11.574806 v 0 c -6.392588,0 -11.5748044,-5.182221 -11.574805,-11.574807 z"
       fill-rule="evenodd"
       id="path36" />
    <path
       stroke="#3ac0ed"
       stroke-width="1"
       stroke-linejoin="round"
       stroke-linecap="butt"
       d="m 5.351706,60.3937 v 0 c 0,-6.392586 5.182216,-11.574802 11.574804,-11.574802 v 0 c 3.069828,0 6.013924,1.219486 8.184622,3.390183 2.170696,2.170696 3.390181,5.114792 3.390181,8.18462 v 0 c 0,6.392585 -5.182217,11.574806 -11.574802,11.574806 v 0 c -6.392588,0 -11.5748044,-5.182221 -11.574805,-11.574807 z"
       fill-rule="evenodd"
       id="path38" />
  </g>
  <path
     fill="#3ac0ed"
     d="m 40.805775,80.826775 v 0 c 0,-8.01e-4 6.48e-4,-0.0015 0.0015,-0.0015 l 174.234775,0.0015 c 3.8e-4,0 7.6e-4,1.53e-4 0.001,4.2e-4 2.8e-4,2.74e-4 4.3e-4,6.4e-4 4.3e-4,10e-4 l -10e-4,9.447365 c 0,8.01e-4 -6.4e-4,0.0015 -0.001,0.0015 L 40.805779,90.27559 v 0 c -8.01e-4,0 -0.0015,-6.49e-4 -0.0015,-0.0014 z"
     fill-rule="evenodd"
     id="path41" />
</svg>
