<svg version="1.1" viewBox="0.0 0.0 226.77165354330708 113.38582677165354" fill="none" stroke="none" stroke-linecap="square" stroke-miterlimit="10" xmlns:xlink="http://www.w3.org/1999/xlink" xmlns="http://www.w3.org/2000/svg"><clipPath id="p.0"><path d="m0 0l226.77165 0l0 113.385826l-226.77165 0l0 -113.385826z" clip-rule="nonzero"/></clipPath><g clip-path="url(#p.0)"><path fill="#ffffff" d="m0 0l226.77165 0l0 113.385826l-226.77165 0z" fill-rule="evenodd"/><path fill="#000000" fill-opacity="0.0" d="m28.616798 21.606298l152.91339 0l0 77.5748l-152.91339 0z" fill-rule="evenodd"/><path fill="#000000" d="m40.538673 76.686295l0 -38.874996l7.921875 0l0 33.499996l9.125 0l0 5.375l-17.046875 0zm20.167923 0l0 -27.749996l7.25 0l0 27.749996l-7.25 0zm-0.046875 -32.29687l0 -5.4375l7.296875 0l0 5.4375l-7.296875 0zm15.882904 32.29687l-5.5625 -27.749996l7.0 0l2.546875 18.671871l2.40625 -18.671871l6.953125 0l-5.609375 27.749996l-7.734375 0zm24.96466 0.484375q-3.078125 0 -5.140625 -1.125q-2.0625 -1.140625 -3.125 -3.3125q-1.046875 -2.1875 -1.046875 -5.265625l0 -9.312496q0 -3.171875 1.046875 -5.296875q1.0625 -2.140625 3.171875 -3.265625q2.109375 -1.125 5.09375 -1.125q3.171875 0 5.140625 1.15625q1.96875 1.140625 2.890625 3.359375q0.9375 2.203125 0.9375 5.359375l0 4.859375l-11.125 0l0 5.374996q0 1.203125 0.25 1.96875q0.265625 0.765625 0.75 1.078125q0.484375 0.3125 1.203125 0.3125q0.671875 0 1.171875 -0.3125q0.5 -0.3125 0.734375 -0.984375q0.25 -0.671875 0.25 -1.78125l0 -2.640625l6.71875 0l0 2.3125q0 4.21875 -2.3125 6.4375q-2.296875 2.203125 -6.609375 2.203125zm-2.15625 -17.421871l4.359375 0l0 -2.75q0 -1.1875 -0.25 -1.9375q-0.234375 -0.75 -0.734375 -1.046875q-0.5 -0.3125 -1.265625 -0.3125q-0.71875 0 -1.1875 0.34375q-0.453125 0.328125 -0.6875 1.171875q-0.234375 0.828125 -0.234375 2.359375l0 2.171875z" fill-rule="nonzero"/><path fill="#000000" fill-opacity="0.0" d="m108.057945 20.0l322.92914 0l0 80.7874l-322.92914 0z" fill-rule="evenodd"/><path fill="#000000" d="m122.901695 77.936874q-1.0625 0 -1.0625 -1.109375l0 -32.921875l-12.8125 0q-1.125 0 -1.125 -1.015625q0 -0.96875 1.125 -0.96875l27.749992 0q1.125 0 1.125 0.96875q0 1.015625 -1.125 1.015625l-12.812492 0l0 32.921875q0 1.109375 -1.0625 1.109375zm20.215843 -31.5q-1.78125 0 -1.78125 -1.78125q0 -1.71875 1.78125 -1.71875q1.765625 0 1.765625 1.71875q0 1.78125 -1.765625 1.78125zm0 31.359375q-1.0625 0 -1.0625 -1.125l0 -22.59375q0 -1.109375 1.0625 -1.109375q1.0625 0 1.0625 1.109375l0 22.59375q0 1.125 -1.0625 1.125zm10.832886 0.140625q-1.0625 0 -1.0625 -1.109375l0 -22.890625q0 -1.125 1.0625 -1.125q1.015625 0 1.015625 1.125l0 3.640625q1.109375 -2.375 3.109375 -3.609375q2.0 -1.25 4.6875 -1.25q5.9375 0 7.453125 5.171875q1.0625 -2.390625 3.234375 -3.78125q2.1875 -1.390625 5.125 -1.390625q8.046875 0 8.046875 9.3125l0 14.796875q0 1.109375 -1.0625 1.109375q-1.0625 0 -1.0625 -1.109375l0 -14.59375q0 -3.890625 -1.390625 -5.71875q-1.390625 -1.828125 -4.640625 -1.828125q-3.484375 0 -5.5625 2.40625q-2.078125 2.40625 -2.078125 6.46875l0 13.265625q0 1.109375 -1.0625 1.109375q-1.0625 0 -1.0625 -1.109375l0 -14.59375q0 -3.890625 -1.40625 -5.71875q-1.390625 -1.828125 -4.625 -1.828125q-3.5 0 -5.578125 2.40625q-2.078125 2.40625 -2.078125 6.46875l0 13.265625q0 1.109375 -1.0625 1.109375zm51.465622 0.109375q-5.46875 0 -8.640625 -3.359375q-3.15625 -3.375 -3.15625 -9.203125q0 -3.84375 1.4375 -6.703125q1.453125 -2.875 4.0 -4.46875q2.5625 -1.59375 5.90625 -1.59375q4.765625 0 7.390625 3.125q2.640625 3.109375 2.640625 8.625q0 1.3125 -1.109375 1.3125l-18.09375 0q0.109375 4.921875 2.578125 7.609375q2.484375 2.671875 6.953125 2.671875q2.015625 0 3.78125 -0.53125q1.78125 -0.53125 3.515625 -1.890625q0.65625 -0.515625 1.1875 -0.3125q0.53125 0.203125 0.65625 0.765625q0.125 0.5625 -0.53125 1.109375q-1.578125 1.328125 -3.859375 2.09375q-2.265625 0.75 -4.65625 0.75zm-0.5 -23.40625q-4.109375 0 -6.421875 2.640625q-2.296875 2.625 -2.65625 6.625l17.1875 0q-0.15625 -4.296875 -2.1875 -6.78125q-2.03125 -2.484375 -5.921875 -2.484375z" fill-rule="nonzero"/><path fill="#3ac0ed" d="m10.265092 60.3937l0 0c0 -3.678997 2.982418 -6.661415 6.661418 -6.661415l0 0c1.7667179 0 3.4610748 0.7018242 4.710333 1.9510841c1.249258 1.2492561 1.9510841 2.943615 1.9510841 4.710331l0 0c0 3.6790009 -2.982418 6.661415 -6.661417 6.661415l0 0c-3.679 0 -6.661418 -2.9824142 -6.661418 -6.661415z" fill-rule="evenodd"/><g filter="url(#shadowFilter-p.1)"><use xlink:href="#p.1" transform=""/></g><defs><filter id="shadowFilter-p.1" filterUnits="userSpaceOnUse"><feGaussianBlur in="SourceAlpha" stdDeviation="1.5" result="blur"/><feComponentTransfer in="blur" color-interpolation-filters="sRGB"><feFuncR type="linear" slope="0" intercept="0.24313726"/><feFuncG type="linear" slope="0" intercept="0.70980394"/><feFuncB type="linear" slope="0" intercept="0.9607843"/><feFuncA type="linear" slope="0.77" intercept="0"/></feComponentTransfer></filter></defs><g id="p.1"><path fill="#000000" fill-opacity="0.0" d="m5.351706 60.3937l0 0c0 -6.3925858 5.182216 -11.574802 11.574804 -11.574802l0 0c3.069828 0 6.0139236 1.2194862 8.184622 3.3901825c2.1706963 2.1706963 3.3901806 5.114792 3.3901806 8.18462l0 0c0 6.3925858 -5.1822166 11.574806 -11.574802 11.574806l0 0c-6.3925877 0 -11.574804 -5.1822205 -11.574804 -11.574806z" fill-rule="evenodd"/><path stroke="#3ac0ed" stroke-width="1.0" stroke-linejoin="round" stroke-linecap="butt" d="m5.351706 60.3937l0 0c0 -6.3925858 5.182216 -11.574802 11.574804 -11.574802l0 0c3.069828 0 6.0139236 1.2194862 8.184622 3.3901825c2.1706963 2.1706963 3.3901806 5.114792 3.3901806 8.18462l0 0c0 6.3925858 -5.1822166 11.574806 -11.574802 11.574806l0 0c-6.3925877 0 -11.574804 -5.1822205 -11.574804 -11.574806z" fill-rule="evenodd"/></g><path fill="#3ac0ed" d="m40.805775 80.826775l0 0c0 -8.010864E-4 6.4849854E-4 -0.0014572144 0.0014533997 -0.0014572144l174.23477 0.0014572144c3.8146973E-4 0 7.6293945E-4 1.5258789E-4 0.0010223389 4.196167E-4c2.746582E-4 2.746582E-4 4.272461E-4 6.4086914E-4 4.272461E-4 0.0010299683l-0.001449585 9.447365c0 8.010864E-4 -6.4086914E-4 0.0014572144 -0.001449585 0.0014572144l-174.23477 -0.0014572144l0 0c-8.010864E-4 0 -0.0014533997 -6.4849854E-4 -0.0014533997 -0.001449585z" fill-rule="evenodd"/></g></svg>